<?xml version="1.0" encoding="utf-8"?>
<svg version="1.1" xmlns:xlink="http://www.w3.org/1999/xlink" width="22px" height="19px" xmlns="http://www.w3.org/2000/svg">
  <g transform="matrix(1 0 0 1 -120 -714 )">
    <path d="M 131 714  C 137.16 714  142 718.18  142 723.5  C 142 728.82  137.16 733  131 733  C 124.84 733  120 728.82  120 723.5  C 120 718.18  124.84 714  131 714  Z " fill-rule="nonzero" fill="#333333" stroke="none" />
    <path d="M 131 714.5  C 136.88 714.5  141.5 718.46  141.5 723.5  C 141.5 728.54  136.88 732.5  131 732.5  C 125.12 732.5  120.5 728.54  120.5 723.5  C 120.5 718.46  125.12 714.5  131 714.5  Z " stroke-width="1" stroke="#797979" fill="none" />
  </g>
</svg>