<?xml version="1.0" encoding="utf-8"?>
<svg version="1.1" xmlns:xlink="http://www.w3.org/1999/xlink" width="22px" height="19px" xmlns="http://www.w3.org/2000/svg">
  <g transform="matrix(1 0 0 1 -156 -714 )">
    <path d="M 167 714  C 173.16 714  178 718.18  178 723.5  C 178 728.82  173.16 733  167 733  C 160.84 733  156 728.82  156 723.5  C 156 718.18  160.84 714  167 714  Z " fill-rule="nonzero" fill="#ffffff" stroke="none" fill-opacity="0" />
    <path d="M 167 714.5  C 172.88 714.5  177.5 718.46  177.5 723.5  C 177.5 728.54  172.88 732.5  167 732.5  C 161.12 732.5  156.5 728.54  156.5 723.5  C 156.5 718.46  161.12 714.5  167 714.5  Z " stroke-width="1" stroke="#797979" fill="none" />
  </g>
</svg>