<?xml version="1.0" encoding="utf-8"?>
<svg version="1.1" xmlns:xlink="http://www.w3.org/1999/xlink" width="79px" height="72px" xmlns="http://www.w3.org/2000/svg">
  <g transform="matrix(1 0 0 1 -221 -63 )">
    <path d="M 65.11328125 30.515625  C 65.73046875 29.953125  66.0390625 29.25  66.0390625 28.40625  C 66.0390625 27.53125  65.73046875 26.812500000000004  65.11328125 26.250000000000004  L 60.432942708333336 22.031250000000004  C 59.7814670138889 21.437499999999993  59.0099826388889 21.140624999999996  58.118489583333336 21.140624999999996  C 57.22699652777778 21.140624999999996  56.45551215277778 21.437499999999993  55.804036458333336 22.031250000000004  L 34.81966145833333 41.10937500000001  L 23.195963541666668 30.515625  C 22.54448784722222 29.921875  21.77300347222222 29.625000000000004  20.881510416666668 29.625000000000004  C 19.990017361111114 29.625000000000004  19.21853298611111 29.921875  18.567057291666664 30.515625  L 13.88671875 34.734375  C 13.26953125 35.296875  12.960937500000002 36.015625  12.9609375 36.89062500000001  C 12.960937500000002 37.73437500000001  13.26953125 38.43750000000001  13.88671875 39.00000000000001  L 32.50520833333333 55.96875  C 33.15668402777778 56.56249999999999  33.92816840277778 56.859375  34.81966145833333 56.859375  C 35.74544270833333 56.859375  36.53407118055556 56.56249999999999  37.185546875 55.96875  L 65.11328125 30.515625  Z M 73.70247395833334 17.9296875  C 77.2341579861111 23.445312499999993  79 29.46874999999999  79 36  C 79 42.53125  77.2341579861111 48.55468749999999  73.70247395833334 54.0703125  C 70.17078993055556 59.5859375  65.37901475694444 63.953125  59.3271484375 67.171875  C 53.275282118055564 70.390625  46.66623263888889 72  39.5 72  C 32.333767361111114 72  25.724717881944446 70.390625  19.6728515625 67.171875  C 13.620985243055557 63.953125  8.829210069444445 59.5859375  5.297526041666667 54.0703125  C 1.7658420138888886 48.55468749999999  0 42.53125  0 36  C 0 29.46874999999999  1.7658420138888886 23.445312499999993  5.297526041666667 17.9296875  C 8.829210069444445 12.4140625  13.620985243055557 8.046874999999993  19.6728515625 4.828124999999997  C 25.724717881944446 1.6093749999999938  32.333767361111114 0  39.5 0  C 46.66623263888889 0  53.275282118055564 1.6093749999999938  59.3271484375 4.828124999999997  C 65.37901475694444 8.046874999999993  70.17078993055556 12.4140625  73.70247395833334 17.9296875  Z " fill-rule="nonzero" fill="#95f204" stroke="none" fill-opacity="0.5764705882352941" transform="matrix(1 0 0 1 221 63 )" />
  </g>
</svg>