<?xml version="1.0" encoding="utf-8"?>
<svg version="1.1" xmlns:xlink="http://www.w3.org/1999/xlink" width="57px" height="49px" xmlns="http://www.w3.org/2000/svg">
  <g transform="matrix(1 0 0 1 -1417 6 )">
    <path d="M 39.823660714285715 43.107421875  C 43.322544642857146 41.51236979166667  46.19587053571429 39.34765625  48.443638392857146 36.61328125  C 47.97712053571429 33.787760416666664  47.04938616071429 31.440755208333332  45.660435267857146 29.572265625  C 44.271484375 27.703776041666668  42.31529017857143 26.623697916666664  39.79185267857143 26.332031249999996  C 38.37109375 27.68098958333333  36.679966517857146 28.73372395833333  34.718470982142854 29.490234374999996  C 32.75697544642858 30.246744791666664  30.68415178571429 30.625  28.5 30.625  C 26.315848214285715 30.625  24.24302455357143 30.246744791666664  22.281529017857142 29.490234374999996  C 20.32003348214286 28.73372395833333  18.62890625 27.68098958333333  17.208147321428573 26.332031249999996  C 14.684709821428571 26.623697916666664  12.728515625000002 27.703776041666668  11.339564732142858 29.572265625  C 9.950613839285715 31.440755208333332  9.022879464285715 33.787760416666664  8.556361607142858 36.61328125  C 10.804129464285715 39.34765625  13.677455357142858 41.51236979166667  17.176339285714285 43.107421875  C 20.675223214285715 44.70247395833333  24.44977678571429 45.5  28.5 45.5  C 32.550223214285715 45.5  36.324776785714285 44.70247395833333  39.823660714285715 43.107421875  Z M 37.13588169642857 24.923828125  C 39.521484375 22.873046875  40.714285714285715 20.398437500000004  40.714285714285715 17.499999999999996  C 40.714285714285715 14.601562499999998  39.521484375 12.126953125  37.13588169642857 10.076171875  C 34.750279017857146 8.025390624999998  31.871651785714285 7.000000000000003  28.5 7.000000000000003  C 25.128348214285715 7.000000000000003  22.249720982142858 8.025390624999998  19.864118303571427 10.076171875  C 17.478515625 12.126953125  16.285714285714285 14.601562499999998  16.285714285714285 17.499999999999996  C 16.285714285714285 20.398437500000004  17.478515625 22.873046875  19.864118303571427 24.923828125  C 22.249720982142858 26.974609375000004  25.128348214285715 28  28.5 28  C 31.871651785714285 28  34.750279017857146 26.974609375000004  37.13588169642857 24.923828125  Z M 54.741629464285715 14.984374999999998  C 56.24720982142858 18.010416666666664  57 21.182291666666664  57 24.5  C 57 27.81770833333333  56.24720982142858 30.98502604166666  54.741629464285715 34.001953125  C 53.23604910714287 37.01888020833333  51.21623883928572 39.625651041666664  48.682198660714285 41.822265625  C 46.14815848214286 44.01888020833333  43.12109375000001 45.76432291666667  39.601004464285715 47.05859375  C 36.08091517857143 48.352864583333336  32.380580357142854 49  28.5 49  C 24.640625 49  20.950892857142858 48.352864583333336  17.430803571428573 47.05859375  C 13.910714285714286 45.76432291666667  10.878348214285714 44.0234375  8.333705357142858 41.8359375  C 5.7890625 39.6484375  3.763950892857143 37.041666666666664  2.2583705357142856 34.015625  C 0.7527901785714285 30.989583333333332  0 27.81770833333333  0 24.5  C 0 21.182291666666664  0.7527901785714285 18.010416666666664  2.2583705357142856 14.984374999999998  C 3.763950892857143 11.958333333333329  5.7890625 9.3515625  8.333705357142858 7.164062499999997  C 10.878348214285714 4.9765625  13.910714285714286 3.235677083333332  17.430803571428573 1.9414062499999991  C 20.950892857142858 0.6471354166666664  24.640625 0  28.5 0  C 32.359375 0  36.049107142857146 0.6471354166666664  39.56919642857143 1.9414062499999991  C 43.08928571428572 3.235677083333332  46.121651785714285 4.9765625  48.666294642857146 7.164062499999997  C 51.21093750000001 9.3515625  53.23604910714287 11.958333333333329  54.741629464285715 14.984374999999998  Z " fill-rule="nonzero" fill="#80ffff" stroke="none" transform="matrix(1 0 0 1 1417 -6 )" />
  </g>
</svg>