<?xml version="1.0" encoding="utf-8"?>
<svg version="1.1" xmlns:xlink="http://www.w3.org/1999/xlink" width="432px" height="40px" viewBox="448 32  432 40" xmlns="http://www.w3.org/2000/svg">
  <path d="M 449.5 52  A 18.5 18.5 0 0 1 468 33.5 L 860 33.5  A 18.5 18.5 0 0 1 878.5 52 A 18.5 18.5 0 0 1 860 70.5 L 468 70.5  A 18.5 18.5 0 0 1 449.5 52 Z " fill-rule="nonzero" fill="#ffffff" stroke="none" fill-opacity="0" />
  <path d="M 449 52  A 19 19 0 0 1 468 33 L 860 33  A 19 19 0 0 1 879 52 A 19 19 0 0 1 860 71 L 468 71  A 19 19 0 0 1 449 52 Z " stroke-width="2" stroke="#333333" fill="none" />
</svg>