<?xml version="1.0" encoding="utf-8"?>
<svg version="1.1" xmlns:xlink="http://www.w3.org/1999/xlink" width="599px" height="261px" xmlns="http://www.w3.org/2000/svg">
  <defs>
    <linearGradient gradientUnits="userSpaceOnUse" x1="1037.3412162162163" y1="803.425925925926" x2="808.5067567567569" y2="1956.1666666666665" id="LinearGradient573">
      <stop id="Stop574" stop-color="#333333" offset="0" />
      <stop id="Stop575" stop-color="#000000" offset="1" />
    </linearGradient>
    <radialGradient cx="1497" cy="492" r="561.7702254536584" gradientTransform="matrix(-0.541946351959942 0.8404130839041658 -0.8404130839041654 -0.5419463519599417 2721.7769261648823 -499.46078144024494 )" gradientUnits="userSpaceOnUse" id="RadialGradient576">
      <stop id="Stop577" stop-color="#00ffff" offset="0" />
      <stop id="Stop578" stop-color="#000000" offset="1" />
    </radialGradient>
    <filter x="908px" y="492px" width="599px" height="261px" filterUnits="userSpaceOnUse" id="filter579">
      <feOffset dx="5" dy="5" in="SourceAlpha" result="shadowOffsetInner" />
      <feGaussianBlur stdDeviation="2.5" in="shadowOffsetInner" result="shadowGaussian" />
      <feComposite in2="shadowGaussian" operator="atop" in="SourceAlpha" result="shadowComposite" />
      <feColorMatrix type="matrix" values="0 0 0 0 0.7647058823529411  0 0 0 0 0.027450980392156862  0 0 0 0 0.24705882352941178  0 0 0 0.34901960784313724 0  " in="shadowComposite" />
    </filter>
    <g id="widget580">
      <path d="M 909.5 517  A 23.5 23.5 0 0 1 933 493.5 L 1472 493.5  A 23.5 23.5 0 0 1 1495.5 517 L 1495.5 718  A 23.5 23.5 0 0 1 1472 741.5 L 933 741.5  A 23.5 23.5 0 0 1 909.5 718 L 909.5 517  Z " fill-rule="nonzero" fill="url(#LinearGradient573)" stroke="none" />
      <path d="M 909 517  A 24 24 0 0 1 933 493 L 1472 493  A 24 24 0 0 1 1496 517 L 1496 718  A 24 24 0 0 1 1472 742 L 933 742  A 24 24 0 0 1 909 718 L 909 517  Z " stroke-width="2" stroke="url(#RadialGradient576)" fill="none" />
    </g>
  </defs>
  <g transform="matrix(1 0 0 1 -908 -492 )">
    <use xlink:href="#widget580" filter="url(#filter579)" />
    <use xlink:href="#widget580" />
  </g>
</svg>