<?xml version="1.0" encoding="utf-8"?>
<svg version="1.1" xmlns:xlink="http://www.w3.org/1999/xlink" width="291px" height="47px" xmlns="http://www.w3.org/2000/svg">
  <defs>
    <radialGradient cx="280" cy="0" r="267.05545522415014" gradientTransform="matrix(7.449837182537232E-15 0.3100882185543537 -1 2.4024895938545275E-14 279.99999999999795 -86.82470119521903 )" gradientUnits="userSpaceOnUse" id="RadialGradient581">
      <stop id="Stop582" stop-color="#80ffff" offset="0" />
      <stop id="Stop583" stop-color="#000000" offset="1" />
    </radialGradient>
    <mask fill="white" id="clip584">
      <path d="M 0 37  L 0 24  L 0 20  C 0 8.799999999999955  8.799999999999955 0  20 0  L 260 0  C 271.20000000000005 0  280 8.799999999999955  280 20  L 280 37  L 0 37  Z " fill-rule="evenodd" />
    </mask>
    <filter x="920px" y="914px" width="291px" height="47px" filterUnits="userSpaceOnUse" id="filter585">
      <feOffset dx="6" dy="5" in="SourceAlpha" result="shadowOffsetInner" />
      <feGaussianBlur stdDeviation="2.5" in="shadowOffsetInner" result="shadowGaussian" />
      <feComposite in2="shadowGaussian" operator="atop" in="SourceAlpha" result="shadowComposite" />
      <feColorMatrix type="matrix" values="0 0 0 0 0.8392156862745098  0 0 0 0 0  0 0 0 0 1  0 0 0 1 0  " in="shadowComposite" />
    </filter>
    <g id="widget586">
      <path d="M 0 37  L 0 24  L 0 20  C 0 8.799999999999955  8.799999999999955 0  20 0  L 260 0  C 271.20000000000005 0  280 8.799999999999955  280 20  L 280 37  L 0 37  Z " fill-rule="nonzero" fill="#1a1a1d" stroke="none" transform="matrix(1 0 0 1 920 914 )" />
      <path d="M 0 37  L 0 24  L 0 20  C 0 8.799999999999955  8.799999999999955 0  20 0  L 260 0  C 271.20000000000005 0  280 8.799999999999955  280 20  L 280 37  L 0 37  Z " stroke-width="2" stroke="url(#RadialGradient581)" fill="none" transform="matrix(1 0 0 1 920 914 )" mask="url(#clip584)" />
    </g>
  </defs>
  <g transform="matrix(1 0 0 1 -920 -914 )">
    <use xlink:href="#widget586" filter="url(#filter585)" />
    <use xlink:href="#widget586" />
  </g>
</svg>