<?xml version="1.0" encoding="utf-8"?>
<svg version="1.1" xmlns:xlink="http://www.w3.org/1999/xlink" width="38px" height="18px" xmlns="http://www.w3.org/2000/svg">
  <g transform="matrix(1 0 0 1 -1139 -924 )">
    <path d="M 37.61923847695391 1.855670103092783  C 37.87307949231797 2.0618556701030872  38 2.2989690721649465  38 2.567010309278351  C 38 2.8350515463917505  37.87307949231797 3.0721649484536053  37.61923847695391 3.278350515463918  L 19.87575150300601 17.690721649484534  C 19.62191048764195 17.89690721649484  19.329993319973283 18  19 18  C 18.670006680026724 18  18.378089512358052 17.89690721649484  18.12424849699399 17.690721649484534  L 0.3807615230460922 3.278350515463918  C 0.1269205076820311 3.0721649484536053  0 2.8350515463917505  0 2.567010309278351  C 0 2.2989690721649465  0.1269205076820311 2.0618556701030872  0.3807615230460922 1.855670103092783  L 2.284569138276553 0.3092783505154648  C 2.538410153640615 0.10309278350515227  2.8303273213092854 0  3.1603206412825653 0  C 3.4903139612558456 0  3.782231128924516 0.10309278350515227  4.0360721442885765 0.3092783505154648  L 19 12.463917525773196  L 33.963927855711425 0.3092783505154648  C 34.217768871075485 0.10309278350515227  34.50968603874416 0  34.83967935871743 0  C 35.169672678690716 0  35.46158984635939 0.10309278350515227  35.71543086172345 0.3092783505154648  L 37.61923847695391 1.855670103092783  Z " fill-rule="nonzero" fill="#c501eb" stroke="none" transform="matrix(1 0 0 1 1139 924 )" />
  </g>
</svg>