<?xml version="1.0" encoding="utf-8"?>
<svg version="1.1" xmlns:xlink="http://www.w3.org/1999/xlink" width="14px" height="16px" xmlns="http://www.w3.org/2000/svg">
  <g transform="matrix(1 0 0 1 -1171 -561 )">
    <path d="M 13.859719438877756 1.6494845360824737  C 13.953239812959252 1.8327605956471889  14 2.043528064146619  14 2.281786941580757  C 14 2.5200458190148893  13.953239812959252 2.730813287514316  13.859719438877756 2.914089347079038  L 7.322645290581162 15.72508591065292  C 7.229124916499666 15.908361970217635  7.121576486305946 16  7 16  C 6.878423513694056 16  6.770875083500335 15.908361970217635  6.677354709418838 15.72508591065292  L 0.1402805611222445 2.914089347079038  C 0.0467601870407483 2.730813287514316  0 2.5200458190148893  0 2.281786941580757  C 0 2.043528064146619  0.0467601870407483 1.8327605956471889  0.1402805611222445 1.6494845360824737  L 0.8416833667334669 0.27491408934707984  C 0.9352037408149636 0.09163802978235758  1.0427521710086842 0  1.1643286573146292 0  C 1.2859051436205746 0  1.3934535738142952 0.09163802978235758  1.4869739478957915 0.27491408934707984  L 7 11.079037800687285  L 12.513026052104209 0.27491408934707984  C 12.606546426185705 0.09163802978235758  12.714094856379425 0  12.83567134268537 0  C 12.957247828991317 0  13.064796259185039 0.09163802978235758  13.158316633266534 0.27491408934707984  L 13.859719438877756 1.6494845360824737  Z " fill-rule="nonzero" fill="#910012" stroke="none" fill-opacity="0.984313725490196" transform="matrix(1 0 0 1 1171 561 )" />
  </g>
</svg>