<?xml version="1.0" encoding="utf-8"?>
<svg version="1.1" xmlns:xlink="http://www.w3.org/1999/xlink" width="15px" height="16px" xmlns="http://www.w3.org/2000/svg">
  <g transform="matrix(1 0 0 1 -1171 -561 )">
    <path d="M 14.849699398797595 1.6494845360824737  C 14.9498997995992 1.8327605956471889  15 2.043528064146619  15 2.281786941580757  C 15 2.5200458190148893  14.9498997995992 2.730813287514316  14.849699398797595 2.914089347079038  L 7.845691382765531 15.72508591065292  C 7.745490981963928 15.908361970217635  7.630260521042085 16  7.5 16  C 7.369739478957917 16  7.254509018036074 15.908361970217635  7.154308617234468 15.72508591065292  L 0.1503006012024048 2.914089347079038  C 0.05010020040080175 2.730813287514316  0 2.5200458190148893  0 2.281786941580757  C 0 2.043528064146619  0.05010020040080175 1.8327605956471889  0.1503006012024048 1.6494845360824737  L 0.9018036072144289 0.27491408934707984  C 1.0020040080160324 0.09163802978235758  1.117234468937876 0  1.24749498997996 0  C 1.3777555110220443 0  1.4929859719438878 0.09163802978235758  1.593186372745491 0.27491408934707984  L 7.5 11.079037800687285  L 13.40681362725451 0.27491408934707984  C 13.507014028056114 0.09163802978235758  13.622244488977957 0  13.75250501002004 0  C 13.882765531062127 0  13.99799599198397 0.09163802978235758  14.098196392785573 0.27491408934707984  L 14.849699398797595 1.6494845360824737  Z " fill-rule="nonzero" fill="#ffff00" stroke="none" transform="matrix(1 0 0 1 1171 561 )" />
  </g>
</svg>