<?xml version="1.0" encoding="utf-8"?>
<svg version="1.1" xmlns:xlink="http://www.w3.org/1999/xlink" width="43px" height="40px" xmlns="http://www.w3.org/2000/svg">
  <g transform="matrix(1 0 0 1 -219 -220 )">
    <path d="M 42.569138276553105 4.123711340206184  C 42.8563794255177 4.581901489117972  43 5.108820160366547  43 5.704467353951892  C 43 6.300114547537223  42.8563794255177 6.82703321878579  42.569138276553105 7.285223367697595  L 22.490981963927855 39.3127147766323  C 22.20374081496326 39.77090492554409  21.873413493653977 40  21.5 40  C 21.12658650634603 40  20.796259185036742 39.77090492554409  20.509018036072142 39.3127147766323  L 0.4308617234468938 7.285223367697595  C 0.14362057448229834 6.82703321878579  0 6.300114547537223  0 5.704467353951892  C 0 5.108820160366547  0.14362057448229834 4.581901489117972  0.4308617234468938 4.123711340206184  L 2.5851703406813624 0.6872852233676996  C 2.8724114896459594 0.22909507445589394  3.2027388109552444 0  3.5761523046092183 0  C 3.949565798263194 0  4.2798931195724785 0.22909507445589394  4.567134268537074 0.6872852233676996  L 21.5 27.697594501718214  L 38.432865731462925 0.6872852233676996  C 38.72010688042752 0.22909507445589394  39.050434201736806 0  39.42384769539078 0  C 39.79726118904476 0  40.127588510354045 0.22909507445589394  40.41482965931864 0.6872852233676996  L 42.569138276553105 4.123711340206184  Z " fill-rule="nonzero" fill="#000000" stroke="none" transform="matrix(1 0 0 1 219 220 )" />
  </g>
</svg>