<?xml version="1.0" encoding="utf-8"?>
<svg version="1.1" xmlns:xlink="http://www.w3.org/1999/xlink" width="172px" height="158px" xmlns="http://www.w3.org/2000/svg">
  <defs>
    <radialGradient cx="86" cy="79" r="86" gradientTransform="matrix(-1 0 -0 -0.9186046511627907 172 151.56976744186045 )" gradientUnits="userSpaceOnUse" id="RadialGradient618">
      <stop id="Stop619" stop-color="#80ffff" offset="0" />
      <stop id="Stop620" stop-color="#000000" offset="1" />
    </radialGradient>
  </defs>
  <g transform="matrix(1 0 0 1 -113 -178 )">
    <path d="M 52.59821428571429 6.260044642857141  C 63.2202380952381 2.0866815476190466  74.35416666666667 0  86 0  C 97.64583333333334 0  108.77976190476193 2.0866815476190466  119.40178571428572 6.260044642857141  C 130.02380952380955 10.433407738095234  139.17410714285714 16.046875  146.85267857142858 23.10044642857142  C 154.53125000000003 30.15401785714286  160.64211309523813 38.559523809523796  165.18526785714286 48.31696428571428  C 169.72842261904765 58.074404761904745  172 68.30208333333333  172 79  C 172 89.63913690476191  169.74441964285714 99.83742559523809  165.23325892857142 109.59486607142856  C 160.72209821428572 119.35230654761907  154.62723214285714 127.7578125  146.94866071428572 134.81138392857144  C 139.27008928571428 141.86495535714286  130.11979166666669 147.4931175595238  119.49776785714286 151.69587053571428  C 108.87574404761907 155.89862351190476  97.70982142857142 158  86 158  C 74.29017857142857 158  63.12425595238096 155.91331845238096  52.50223214285714 151.73995535714286  C 41.880208333333336 147.56659226190476  32.74590773809524 141.9384300595238  25.099330357142854 134.85546875  C 17.452752976190474 127.77250744047619  11.357886904761905 119.36700148809524  6.814732142857142 109.63895089285714  C 2.2715773809523805 99.91090029761902  0 89.69791666666666  0 79  C 0 68.30208333333333  2.2715773809523805 58.074404761904745  6.814732142857142 48.31696428571428  C 11.357886904761905 38.559523809523796  17.46875 30.15401785714286  25.14732142857143 23.10044642857142  C 32.825892857142854 16.046875  41.97619047619048 10.433407738095234  52.59821428571429 6.260044642857141  Z M 116.04241071428572 90.28571428571428  C 131.39955357142858 90.28571428571428  141.18973214285714 99.89620535714286  145.41294642857142 119.1171875  C 154.94717261904765 107.06733630952381  159.71428571428572 93.69494047619047  159.71428571428572 79  C 159.71428571428572 69.83035714285714  157.76264880952382 61.072172619047606  153.859375 52.72544642857142  C 149.9561011904762 44.378720238095234  144.7090773809524 37.17819940476189  138.11830357142858 31.12388392857142  C 131.5275297619048 25.069568452380953  123.6889880952381 20.249627976190467  114.60267857142858 16.6640625  C 105.51636904761907 13.078497023809515  95.98214285714286 11.285714285714281  86 11.285714285714281  C 76.01785714285714 11.285714285714281  66.48363095238096 13.078497023809515  57.39732142857143 16.6640625  C 48.31101190476191 20.249627976190467  40.47247023809525 25.069568452380953  33.88169642857143 31.12388392857142  C 27.290922619047624 37.17819940476189  22.04389880952381 44.378720238095234  18.140625 52.72544642857142  C 14.237351190476192 61.072172619047606  12.285714285714285 69.83035714285714  12.285714285714285 79  C 12.285714285714285 93.69494047619047  17.052827380952383 107.06733630952381  26.58705357142857 119.1171875  C 30.810267857142854 99.89620535714286  40.60044642857143 90.28571428571428  55.95758928571429 90.28571428571428  C 64.34002976190477 97.80952380952381  74.35416666666667 101.57142857142856  86 101.57142857142856  C 97.64583333333334 101.57142857142856  107.65997023809524 97.80952380952381  116.04241071428572 90.28571428571428  Z M 112.05915178571428 86.00948660714286  C 119.2578125 79.39676339285714  122.85714285714286 71.41741071428572  122.85714285714286 62.07142857142858  C 122.85714285714286 52.72544642857142  119.2578125 44.74609375  112.05915178571428 38.13337053571428  C 104.86049107142858 31.52064732142858  96.17410714285714 28.21428571428572  86 28.21428571428572  C 75.82589285714286 28.21428571428572  67.13950892857143 31.52064732142858  59.94084821428571 38.13337053571428  C 52.7421875 44.74609375  49.14285714285714 52.72544642857142  49.14285714285714 62.07142857142858  C 49.14285714285714 71.41741071428572  52.7421875 79.39676339285714  59.94084821428571 86.00948660714286  C 67.13950892857143 92.62220982142856  75.82589285714286 95.92857142857144  86 95.92857142857144  C 96.17410714285714 95.92857142857144  104.86049107142858 92.62220982142856  112.05915178571428 86.00948660714286  Z " fill-rule="nonzero" fill="url(#RadialGradient618)" stroke="none" transform="matrix(1 0 0 1 113 178 )" />
  </g>
</svg>