<?xml version="1.0" encoding="utf-8"?>
<svg version="1.1" xmlns:xlink="http://www.w3.org/1999/xlink" width="23px" height="25px" xmlns="http://www.w3.org/2000/svg">
  <defs>
    <linearGradient gradientUnits="userSpaceOnUse" x1="4.232558139535016" y1="7.6710963455150605" x2="11.5" y2="25" id="LinearGradient458">
      <stop id="Stop459" stop-color="#80ffff" stop-opacity="0.9921568627450981" offset="0" />
      <stop id="Stop460" stop-color="#000000" offset="1" />
    </linearGradient>
  </defs>
  <g transform="matrix(1 0 0 1 -1121 -993 )">
    <path d="M 17.145182291666668 15.2099609375  C 17.195095486111114 15.2587890625  17.220052083333332 15.321180555555552  17.220052083333332 15.397135416666668  L 17.220052083333332 17.171223958333332  C 17.220052083333332 17.713758680555554  17.037868923611114 18.196614583333332  16.673502604166668 18.619791666666668  C 16.309136284722225 19.04296875  15.839952256944446 19.371202256944443  15.265950520833332 19.6044921875  C 14.691948784722225 19.837782118055554  14.102973090277779 20.01410590277778  13.4990234375 20.133463541666664  C 12.895073784722225 20.252821180555554  12.30859375 20.3125  11.739583333333332 20.3125  C 9.693142361111112 20.3125  7.98361545138889 19.558376736111114  6.611002604166666 18.050130208333332  C 5.2383897569444455 16.541883680555554  4.552083333333333 14.664713541666668  4.552083333333333 12.418619791666666  C 4.552083333333333 10.215928819444445  5.230902777777779 8.37673611111111  6.588541666666666 6.901041666666666  C 7.946180555555557 5.425347222222221  9.638237847222223 4.6875  11.664713541666668 4.6875  C 12.00412326388889 4.6875  12.380967881944446 4.7119140625  12.795247395833332 4.7607421875  C 13.209526909722225 4.8095703125  13.673719618055557 4.9072265625  14.187825520833332 5.0537109375  C 14.701931423611114 5.2001953125  15.163628472222225 5.384657118055555  15.572916666666668 5.607096354166666  C 15.982204861111114 5.829535590277776  16.326605902777782 6.136067708333334  16.606119791666668 6.526692708333334  C 16.885633680555557 6.917317708333334  17.025390625 7.356770833333334  17.025390625 7.845052083333334  L 17.025390625 9.619140625  C 17.025390625 9.792751736111107  16.94552951388889 9.879557291666666  16.785807291666668 9.879557291666666  L 15.018880208333332 9.879557291666666  C 14.859157986111114 9.879557291666666  14.779296875000002 9.792751736111107  14.779296875 9.619140625  L 14.779296875 8.479817708333334  C 14.779296875000002 8.013237847222221  14.45236545138889 7.647026909722221  13.798502604166668 7.381184895833334  C 13.144639756944446 7.115342881944442  12.458333333333332 6.982421875  11.739583333333332 6.982421875  C 10.342013888888891 6.982421875  9.201497395833334 7.478841145833334  8.318033854166666 8.4716796875  C 7.4345703125 9.464518229166666  6.992838541666666 10.753038194444445  6.992838541666666 12.337239583333334  C 6.992838541666666 13.975694444444443  7.449544270833334 15.32931857638889  8.362955729166666 16.398111979166668  C 9.2763671875 17.466905381944443  10.441840277777779 18.001302083333332  11.859375 18.001302083333332  C 12.538194444444446 18.001302083333332  13.226996527777779 17.87109375  13.92578125 17.610677083333332  C 14.624565972222225 17.350260416666668  14.973958333333332 16.9921875  14.973958333333332 16.536458333333332  L 14.973958333333332 15.397135416666668  C 14.973958333333332 15.321180555555552  14.996419270833332 15.2587890625  15.041341145833332 15.2099609375  C 15.086263020833332 15.1611328125  15.138671875 15.13671875  15.198567708333332 15.13671875  L 16.98046875 15.13671875  C 17.040364583333332 15.13671875  17.095269097222225 15.1611328125  17.145182291666668 15.2099609375  Z M 15.221028645833332 2.9134114583333344  C 14.0380859375 2.3600260416666656  12.797743055555557 2.0833333333333344  11.5 2.0833333333333344  C 10.202256944444445 2.0833333333333344  8.9619140625 2.3600260416666656  7.778971354166666 2.9134114583333344  C 6.596028645833334 3.466796875  5.577799479166667 4.207356770833334  4.724283854166667 5.135091145833334  C 3.870768229166667 6.062825520833334  3.189453125 7.169596354166666  2.6803385416666665 8.455403645833334  C 2.1712239583333335 9.7412109375  1.9166666666666665 11.089409722222221  1.9166666666666665 12.5  C 1.9166666666666665 13.910590277777779  2.1712239583333335 15.2587890625  2.6803385416666665 16.544596354166668  C 3.189453125 17.830403645833332  3.870768229166667 18.937174479166664  4.724283854166667 19.864908854166664  C 5.577799479166667 20.792643229166664  6.596028645833334 21.533203125  7.778971354166666 22.086588541666664  C 8.9619140625 22.639973958333336  10.202256944444445 22.916666666666664  11.5 22.916666666666664  C 12.797743055555557 22.916666666666664  14.0380859375 22.639973958333336  15.221028645833332 22.086588541666664  C 16.403971354166668 21.533203125  17.422200520833332 20.792643229166664  18.275716145833332 19.864908854166664  C 19.129231770833332 18.937174479166664  19.810546875 17.830403645833332  20.319661458333332 16.544596354166668  C 20.828776041666668 15.2587890625  21.083333333333332 13.910590277777779  21.083333333333332 12.5  C 21.083333333333332 11.089409722222221  20.828776041666668 9.7412109375  20.319661458333332 8.455403645833334  C 19.810546875 7.169596354166666  19.129231770833332 6.062825520833334  18.275716145833332 5.135091145833334  C 17.422200520833332 4.207356770833334  16.403971354166668 3.466796875  15.221028645833332 2.9134114583333344  Z M 21.457682291666668 6.2255859375  C 22.485894097222218 8.140733506944443  23 10.232204861111107  23 12.5  C 23 14.76779513888889  22.485894097222218 16.859266493055554  21.457682291666668 18.7744140625  C 20.429470486111114 20.689561631944446  19.03439670138889 22.205946180555554  17.2724609375 23.323567708333336  C 15.510525173611114 24.441189236111114  13.586371527777779 25  11.5 25  C 9.413628472222223 25  7.489474826388889 24.441189236111114  5.7275390625 23.323567708333336  C 3.9656032986111116 22.205946180555554  2.5705295138888893 20.689561631944446  1.5423177083333335 18.7744140625  C 0.5141059027777777 16.859266493055554  0 14.76779513888889  0 12.5  C 0 10.232204861111107  0.5141059027777777 8.140733506944443  1.5423177083333335 6.2255859375  C 2.5705295138888893 4.310438368055555  3.9656032986111116 2.794053819444442  5.7275390625 1.6764322916666656  C 7.489474826388889 0.5588107638888867  9.413628472222223 0  11.5 0  C 13.586371527777779 0  15.510525173611114 0.5588107638888867  17.2724609375 1.6764322916666656  C 19.03439670138889 2.794053819444442  20.429470486111114 4.310438368055555  21.457682291666668 6.2255859375  Z " fill-rule="nonzero" fill="url(#LinearGradient458)" stroke="none" transform="matrix(1 0 0 1 1121 993 )" />
  </g>
</svg>