<?xml version="1.0" encoding="utf-8"?>
<svg version="1.1" xmlns:xlink="http://www.w3.org/1999/xlink" width="41px" height="31px" xmlns="http://www.w3.org/2000/svg">
  <defs>
    <linearGradient gradientUnits="userSpaceOnUse" x1="20.5" y1="15.5" x2="0" y2="15.5" id="LinearGradient441">
      <stop id="Stop442" stop-color="#80ffff" offset="0" />
      <stop id="Stop443" stop-color="#000000" offset="1" />
    </linearGradient>
  </defs>
  <g transform="matrix(1 0 0 1 -12 -985 )">
    <path d="M 36.161167512690355 4.8921875  C 37.7741116751269 4.730729166666666  39.38705583756345 4.327083333333328  41 3.681250000000001  C 39.837986463620986 5.263541666666663  38.43316412859561 6.61171875  36.785532994923855 7.725781250000002  C 36.80287648054146 7.951822916666665  36.81154822335026 8.290885416666663  36.81154822335026 8.74296875  C 36.81154822335026 10.84192708333333  36.48202199661591 12.93684895833333  35.82296954314721 15.027734375  C 35.16391708967851 17.118619791666664  34.162330795262264 19.124739583333334  32.818210659898476 21.04609375  C 31.474090524534688 22.967447916666664  29.87415397631134 24.666796875  28.018401015228427 26.144140625000002  C 26.162648054145517 27.621484374999998  23.925338409475465 28.800130208333336  21.306472081218274 29.680078124999998  C 18.687605752961083 30.560026041666664  15.886632825719124 31  12.903553299492385 31  C 8.20346869712352 31  3.9022842639593907 29.829427083333336  0 27.48828125  C 0.6070219966159055 27.552864583333335  1.2834179357022 27.58515625  2.0291878172588835 27.58515625  C 5.931472081218276 27.58515625  9.408840947546532 26.471093749999998  12.461294416243655 24.24296875  C 10.64022842639594 24.21067708333333  9.009940778341795 23.68997395833333  7.570431472081219 22.680859375  C 6.130922165820643 21.671744791666665  5.142343485617598 20.384114583333332  4.604695431472082 18.817968750000002  C 5.177030456852792 18.898697916666666  5.706006768189511 18.939062500000002  6.191624365482234 18.939062500000002  C 6.937394247038917 18.939062500000002  7.6744923857868015 18.850260416666664  8.402918781725887 18.67265625  C 6.4604483925549925 18.301302083333333  4.851840101522844 17.401171875  3.577093908629442 15.972265625  C 2.302347715736041 14.543359375  1.6649746192893407 12.884375  1.66497461928934 10.9953125  L 1.66497461928934 10.8984375  C 2.8443316412859563 11.511979166666666  4.1104060913705585 11.842968749999997  5.463197969543148 11.89140625  C 4.318527918781726 11.18098958333333  3.407994923857868 10.252604166666666  2.731598984771574 9.10625  C 2.0552030456852792 7.959895833333328  1.717005076142132 6.716666666666663  1.717005076142132 5.3765625  C 1.717005076142132 3.9557291666666656  2.0985617597292725 2.6398437500000016  2.8616751269035534 1.4289062500000014  C 4.960236886632826 3.8346354166666656  7.514065143824028 5.760026041666666  10.523159898477157 7.205078125  C 13.53225465313029 8.650130208333334  16.753807106598984 9.453385416666666  20.187817258883246 9.61484375  C 20.049069373942473 9.00130208333333  19.97969543147208 8.403906249999997  19.97969543147208 7.82265625  C 19.97969543147208 5.659114583333328  20.799175126903553 3.814453125  22.438134517766496 2.288671875000001  C 24.07709390862944 0.7628906250000014  26.058587140439936 0  28.38261421319797 0  C 30.810702199661595 0  32.857233502538065 0.8234375000000014  34.52220812182741 2.470312500000001  C 36.41264805414552 2.131249999999999  38.190355329949234 1.5015625000000008  39.85532994923858 0.5812500000000014  C 39.213620981387486 2.438020833333329  37.98223350253808 3.875  36.161167512690355 4.8921875  Z " fill-rule="nonzero" fill="url(#LinearGradient441)" stroke="none" transform="matrix(1 0 0 1 12 985 )" />
  </g>
</svg>