<?xml version="1.0" encoding="utf-8"?>
<svg version="1.1" xmlns:xlink="http://www.w3.org/1999/xlink" width="23px" height="27px" xmlns="http://www.w3.org/2000/svg">
  <defs>
    <linearGradient gradientUnits="userSpaceOnUse" x1="11.5" y1="13.5" x2="0" y2="13.5" id="LinearGradient444">
      <stop id="Stop445" stop-color="#80ffff" offset="0" />
      <stop id="Stop446" stop-color="#000000" offset="1" />
    </linearGradient>
  </defs>
  <g transform="matrix(1 0 0 1 -71 -985 )">
    <path d="M 16.930555555555557 0  C 19.539351851851855 0  21.5625 0.06490384615384592  23 0.19471153846153777  L 23 4.478365384615383  L 18.820601851851855 4.478365384615383  C 17.29436728395062 4.478365384615383  16.265046296296298 4.673076923076924  15.73263888888889 5.0625  C 15.200231481481483 5.451923076923076  14.934027777777779 6.036057692307692  14.934027777777779 6.814903846153846  L 14.934027777777779 9.881610576923075  L 22.733796296296298 9.881610576923075  L 21.695601851851855 14.684495192307692  L 15 14.684495192307692  L 15 27  L 7 27  L 7 14.684495192307692  L 0 14.684495192307692  L 0 9.881610576923075  L 6.788194444444445 9.881610576923075  L 6.788194444444445 6.344350961538463  C 6.788194444444445 4.33233173076923  7.711033950617284 2.771935096153845  9.556712962962962 1.6631610576923082  C 11.402391975308644 0.5543870192307714  13.86033950617284 0  16.930555555555557 0  Z " fill-rule="nonzero" fill="url(#LinearGradient444)" stroke="none" transform="matrix(1 0 0 1 71 985 )" />
  </g>
</svg>