<?xml version="1.0" encoding="utf-8"?>
<svg version="1.1" xmlns:xlink="http://www.w3.org/1999/xlink" width="31px" height="27px" xmlns="http://www.w3.org/2000/svg">
  <defs>
    <linearGradient gradientUnits="userSpaceOnUse" x1="15.5" y1="13.5" x2="0" y2="13.5" id="LinearGradient447">
      <stop id="Stop448" stop-color="#80ffff" offset="0" />
      <stop id="Stop449" stop-color="#000000" offset="1" />
    </linearGradient>
  </defs>
  <g transform="matrix(1 0 0 1 -112 -989 )">
    <path d="M 17.962239583333336 21.515625  C 18.352430555555557 21.515625  18.547526041666664 21.228515625000004  18.547526041666664 20.654296875  L 18.547526041666664 17.894531250000004  C 18.547526041666664 17.308593749999996  18.352430555555557 17.015624999999996  17.962239583333336 17.015624999999996  C 17.733506944444446 17.015624999999996  17.51150173611111 17.109375  17.296223958333336 17.296875  L 17.296223958333336 21.234375  C 17.51150173611111 21.421875  17.733506944444446 21.515625  17.962239583333336 21.515625  Z M 22.261067708333336 17.912109374999996  L 22.261067708333336 18.509765625  L 23.593098958333336 18.509765625  L 23.593098958333336 17.912109374999996  C 23.593098958333336 17.314453125000004  23.37109375 17.015624999999996  22.927083333333336 17.015624999999996  C 22.483072916666664 17.015624999999996  22.261067708333336 17.314453125000004  22.261067708333336 17.912109374999996  Z M 6.0546875 13.833984375000002  L 10.736979166666668 13.833984375000002  L 10.736979166666668 15.064453124999998  L 9.122395833333332 15.064453124999998  L 9.122395833333332 22.5  L 7.62890625 22.5  L 7.62890625 15.064453124999998  L 6.0546875 15.064453124999998  L 6.0546875 13.833984375000002  Z M 13.44140625 16.048828125000004  L 14.793619791666668 16.048828125000004  L 14.793619791666668 22.5  L 13.44140625 22.5  L 13.44140625 21.796875  C 12.916666666666668 22.32421875  12.405381944444446 22.587890625  11.907552083333332 22.587890625  C 11.463541666666668 22.587890625  11.180989583333332 22.423828125  11.059895833333332 22.095703125  C 10.979166666666668 21.896484375  10.938802083333332 21.580078125  10.938802083333332 21.146484375  L 10.938802083333332 16.048828125000004  L 12.270833333333332 16.048828125000004  L 12.270833333333332 20.794921875  C 12.270833333333332 21.076171875  12.277560763888891 21.228515624999996  12.291015625 21.251953125  C 12.304470486111112 21.427734375  12.405381944444446 21.515625  12.59375 21.515625  C 12.862847222222223 21.515625  13.145399305555555 21.333984375000004  13.44140625 20.970703125  L 13.44140625 16.048828125000004  Z M 19.73828125 16.699218749999996  C 19.832465277777782 16.945312500000004  19.879557291666664 17.37890625  19.879557291666664 18.000000000000004  L 19.879557291666664 20.56640625  C 19.879557291666664 21.175781250000004  19.832465277777782 21.603515625  19.73828125 21.849609375  C 19.576822916666668 22.341796875  19.220269097222225 22.587890625  18.668619791666664 22.587890625  C 18.197699652777782 22.587890625  17.740234375 22.34765625  17.296223958333336 21.8671875  L 17.296223958333336 22.5  L 15.944010416666666 22.5  L 15.944010416666666 13.833984375000002  L 17.296223958333336 13.833984375000002  L 17.296223958333336 16.6640625  C 17.72677951388889 16.1953125  18.184244791666664 15.960937499999998  18.668619791666664 15.960937499999998  C 19.220269097222225 15.960937499999998  19.576822916666668 16.207031250000004  19.73828125 16.699218749999996  Z M 23.572916666666664 20.267578125  L 24.9453125 20.267578125  L 24.9453125 20.42578125  C 24.9453125 20.765625  24.931857638888893 21.017578125000004  24.904947916666664 21.181640625  C 24.864583333333336 21.439453125000004  24.763671875 21.673828125  24.602213541666664 21.884765625  C 24.238932291666664 22.353515625  23.700737847222225 22.587890625  22.987630208333336 22.587890625  C 22.287977430555557 22.587890625  21.743055555555557 22.365234375  21.352864583333336 21.919921875  C 21.0703125 21.603515625  20.929036458333336 21.099609375  20.929036458333336 20.408203125  L 20.929036458333336 18.140625  C 20.929036458333336 17.449218749999996  21.063585069444446 16.945312500000004  21.332682291666664 16.628906250000004  C 21.722873263888893 16.18359375  22.261067708333336 15.960937499999998  22.947265625 15.960937499999998  C 23.633463541666664 15.960937499999998  24.158203125 16.18359375  24.521484375 16.628906250000004  C 24.804036458333336 16.968749999999996  24.9453125 17.472656250000004  24.9453125 18.140625  L 24.9453125 19.476562500000004  L 22.261067708333336 19.476562500000004  L 22.261067708333336 20.619140625  C 22.261067708333336 21.216796875  22.489800347222225 21.515625  22.947265625 21.515625  C 23.270182291666664 21.515625  23.472005208333336 21.36328125  23.552734375 21.05859375  C 23.552734375 21.046875  23.556098090277782 21.005859375  23.562825520833336 20.935546875  C 23.569552951388893 20.865234375  23.572916666666664 20.7685546875  23.572916666666664 20.6455078125  L 23.572916666666664 20.267578125  Z M 15.197265625 4.869140624999999  C 15.627821180555557 4.869140624999999  15.843098958333334 5.173828124999998  15.843098958333334 5.783203125000001  L 15.843098958333334 8.525390625000002  C 15.843098958333334 9.123046875  15.627821180555557 9.421875000000002  15.197265625 9.421875000000002  C 14.766710069444446 9.421875000000002  14.551432291666668 9.123046875  14.551432291666668 8.525390625000002  L 14.551432291666668 5.783203125000001  C 14.551432291666668 5.173828124999998  14.766710069444446 4.869140624999999  15.197265625 4.869140624999999  Z M 26.196614583333336 22.88671875  C 26.465711805555557 21.90234375  26.600260416666664 20.378906249999996  26.600260416666664 18.316406250000004  C 26.600260416666664 16.2421875  26.47243923611111 14.718749999999998  26.216796875 13.746093749999998  C 26.082248263888893 13.230468749999998  25.79296875 12.7998046875  25.348958333333336 12.454101562500002  C 24.904947916666664 12.108398437499998  24.393663194444446 11.90625  23.815104166666664 11.847656250000002  C 21.985243055555557 11.671874999999998  19.213541666666668 11.583984375000002  15.5 11.583984375000002  C 11.799913194444446 11.583984375000002  9.03493923611111 11.671874999999998  7.205078125 11.847656250000002  C 6.613064236111112 11.90625  6.098415798611112 12.108398437499998  5.6611328125 12.454101562500002  C 5.223849826388889 12.7998046875  4.937934027777778 13.230468749999998  4.803385416666666 13.746093749999998  C 4.5342881944444455 14.765625  4.399739583333334 16.2890625  4.399739583333334 18.316406250000004  C 4.399739583333334 20.378906249999996  4.5342881944444455 21.90234375  4.803385416666666 22.88671875  C 4.937934027777778 23.390625000000004  5.223849826388889 23.818359375  5.6611328125 24.169921875  C 6.098415798611112 24.521484375  6.606336805555556 24.7265625  7.184895833333334 24.78515625  C 9.028211805555555 24.9609375  11.799913194444446 25.048828125  15.5 25.048828125  C 19.200086805555557 25.048828125  21.971788194444446 24.9609375  23.815104166666664 24.78515625  C 24.393663194444446 24.7265625  24.901584201388893 24.521484375  25.3388671875 24.169921875  C 25.77615017361111 23.818359375  26.062065972222225 23.390625000000004  26.196614583333336 22.88671875  Z M 11.362630208333332 10.406249999999998  L 11.362630208333332 6.873046874999999  L 13.179036458333332 1.6699218750000009  L 11.665364583333332 1.6699218750000009  L 10.636067708333332 5.097656250000001  L 9.56640625 1.6699218750000009  L 7.9921875 1.6699218750000009  C 8.086371527777779 1.9394531249999996  8.241102430555555 2.343749999999998  8.456380208333332 2.882812500000001  L 8.940755208333332 4.095703125000001  C 9.411675347222223 5.3027343749999964  9.721137152777779 6.228515624999998  9.869140625 6.873046874999999  L 9.869140625 10.406249999999998  L 11.362630208333332 10.406249999999998  Z M 16.771484375 9.826171874999998  C 17.054036458333336 9.509765624999998  17.195312500000004 9.000000000000002  17.1953125 8.296874999999998  L 17.1953125 6.01171875  C 17.195312500000004 5.332031249999998  17.054036458333336 4.822265624999997  16.771484375 4.482421875  C 16.381293402777782 4.0371093749999964  15.856553819444446 3.814453124999999  15.197265625 3.814453124999999  C 14.511067708333332 3.814453124999999  13.986328125 4.0371093749999964  13.623046875 4.482421875  C 13.340494791666668 4.822265624999997  13.19921875 5.332031249999998  13.19921875 6.01171875  L 13.19921875 8.296874999999998  C 13.19921875 8.976562499999996  13.340494791666668 9.486328124999998  13.623046875 9.826171874999998  C 13.986328125 10.271484375  14.511067708333332 10.494140625  15.197265625 10.494140625  C 15.856553819444446 10.494140625  16.381293402777782 10.271484375  16.771484375 9.826171874999998  Z M 20.848307291666664 9.703125  L 20.848307291666664 10.406249999999998  L 22.200520833333336 10.406249999999998  L 22.200520833333336 3.90234375  L 20.848307291666664 3.90234375  L 20.848307291666664 8.876953124999998  C 20.552300347222225 9.240234375  20.269748263888893 9.421875000000002  20.000651041666664 9.421875000000002  C 19.798828125 9.421875000000002  19.69118923611111 9.328124999999998  19.677734375 9.140624999999998  C 19.66427951388889 9.117187499999998  19.657552083333336 8.96484375  19.657552083333336 8.683593750000002  L 19.657552083333336 3.90234375  L 18.305338541666664 3.90234375  L 18.305338541666664 9.052734375000002  C 18.305338541666664 9.486328124999998  18.345703125 9.80859375  18.426432291666664 10.01953125  C 18.574435763888893 10.3359375  18.863715277777782 10.494140625  19.294270833333336 10.494140625  C 19.778645833333336 10.494140625  20.29665798611111 10.23046875  20.848307291666664 9.703125  Z M 29.294596354166664 1.4853515625000009  C 30.431532118055554 2.475585937499998  31 3.6679687499999964  31 5.0625  L 31 21.9375  C 31 23.332031249999996  30.431532118055554 24.524414062500004  29.294596354166664 25.5146484375  C 28.157660590277782 26.5048828125  26.788628472222225 27  25.1875 27  L 5.8125 27  C 4.211371527777778 27  2.8423394097222228 26.5048828125  1.7054036458333335 25.5146484375  C 0.5684678819444443 24.524414062500004  0 23.332031249999996  0 21.9375  L 0 5.0625  C 0 3.6679687499999964  0.5684678819444443 2.475585937499998  1.7054036458333335 1.4853515625000009  C 2.8423394097222228 0.49511718749999833  4.211371527777778 0  5.8125 0  L 25.1875 0  C 26.788628472222225 0  28.157660590277782 0.49511718749999833  29.294596354166664 1.4853515625000009  Z " fill-rule="nonzero" fill="url(#LinearGradient447)" stroke="none" transform="matrix(1 0 0 1 112 989 )" />
  </g>
</svg>