<?xml version="1.0" encoding="utf-8"?>
<svg version="1.1" xmlns:xlink="http://www.w3.org/1999/xlink" width="55px" height="46px" xmlns="http://www.w3.org/2000/svg">
  <defs>
    <radialGradient cx="27.5" cy="23" r="27.5" gradientTransform="matrix(-1 0 -0 -0.8363636363636363 55 42.236363636363635 )" gradientUnits="userSpaceOnUse" id="RadialGradient436">
      <stop id="Stop437" stop-color="#80ffff" offset="0" />
      <stop id="Stop438" stop-color="#000000" offset="1" />
    </radialGradient>
  </defs>
  <g transform="matrix(1 0 0 1 -1442 -7 )">
    <path d="M 38.426339285714285 40.468191964285715  C 41.80245535714286 38.97079613095239  44.57496279761906 36.93861607142857  46.74386160714286 34.371651785714285  C 46.29371279761906 31.719122023809522  45.39853050595239 29.515811011904763  44.05831473214286 27.76171875  C 42.718098958333336 26.007626488095237  40.830543154761905 24.99367559523809  38.39564732142858 24.71986607142857  C 37.024739583333336 25.986235119047613  35.392950148809526 26.974516369047613  33.50027901785714 27.68470982142857  C 31.60760788690477 28.394903273809522  29.607514880952383 28.75  27.5 28.75  C 25.39248511904762 28.75  23.39239211309524 28.394903273809522  21.499720982142858 27.68470982142857  C 19.607049851190478 26.974516369047613  17.975260416666668 25.986235119047613  16.60435267857143 24.71986607142857  C 14.169456845238095 24.99367559523809  12.281901041666668 26.007626488095237  10.941685267857144 27.76171875  C 9.60146949404762 29.515811011904763  8.706287202380953 31.719122023809522  8.256138392857144 34.371651785714285  C 10.425037202380953 36.93861607142857  13.197544642857144 38.97079613095239  16.57366071428571 40.468191964285715  C 19.94977678571429 41.965587797619044  23.591889880952383 42.714285714285715  27.5 42.714285714285715  C 31.40811011904762 42.714285714285715  35.050223214285715 41.965587797619044  38.426339285714285 40.468191964285715  Z M 35.83286830357142 23.397879464285715  C 38.134765625 21.47265625  39.285714285714285 19.149553571428573  39.285714285714285 16.428571428571427  C 39.285714285714285 13.707589285714285  38.134765625 11.384486607142858  35.83286830357142 9.459263392857142  C 33.53097098214286 7.534040178571426  30.75334821428571 6.571428571428574  27.5 6.571428571428574  C 24.24665178571429 6.571428571428574  21.469029017857142 7.534040178571426  19.16713169642857 9.459263392857142  C 16.865234375 11.384486607142858  15.714285714285714 13.707589285714285  15.714285714285714 16.428571428571427  C 15.714285714285714 19.149553571428573  16.865234375 21.47265625  19.16713169642857 23.397879464285715  C 21.469029017857142 25.32310267857143  24.24665178571429 26.285714285714285  27.5 26.285714285714285  C 30.75334821428571 26.285714285714285  33.53097098214286 25.32310267857143  35.83286830357142 23.397879464285715  Z M 52.820870535714285 14.066964285714285  C 54.273623511904766 16.90773809523809  55 19.885416666666664  55 23  C 55 26.11458333333333  54.273623511904766 29.087983630952376  52.820870535714285 31.920200892857142  C 51.36811755952382 34.752418154761905  49.41917782738096 37.199590773809526  46.974051339285715 39.26171875  C 44.52892485119048 41.323846726190474  41.60807291666667 42.962425595238095  38.211495535714285 44.17745535714286  C 34.814918154761905 45.39248511904762  31.24441964285714 46  27.5 46  C 23.776041666666668 46  20.21577380952381 45.39248511904762  16.81919642857143 44.17745535714286  C 13.42261904761905 42.962425595238095  10.496651785714285 41.328125  8.041294642857144 39.27455357142857  C 5.5859375 37.22098214285714  3.6318824404761907 34.773809523809526  2.179129464285714 31.933035714285715  C 0.726376488095238 29.092261904761905  0 26.11458333333333  0 23  C 0 19.885416666666664  0.726376488095238 16.90773809523809  2.179129464285714 14.066964285714285  C 3.6318824404761907 11.226190476190473  5.5859375 8.779017857142858  8.041294642857144 6.725446428571426  C 10.496651785714285 4.671875  13.42261904761905 3.0375744047619033  16.81919642857143 1.8225446428571421  C 20.21577380952381 0.6075148809523807  23.776041666666668 0  27.5 0  C 31.223958333333336 0  34.7842261904762 0.6075148809523807  38.18080357142858 1.8225446428571421  C 41.577380952380956 3.0375744047619033  44.503348214285715 4.671875  46.95870535714286 6.725446428571426  C 49.41406250000001 8.779017857142858  51.36811755952382 11.226190476190473  52.820870535714285 14.066964285714285  Z " fill-rule="nonzero" fill="url(#RadialGradient436)" stroke="none" transform="matrix(1 0 0 1 1442 7 )" />
  </g>
</svg>